# xmcd
#
# Track frame offsets: 
#        150
#        23447
#        47777
#        71960
#        92407
#        115822
#        140622
#        161850
#        195537
#        217817
#
# Disc length: 3257 seconds
#
# Revision: 0
# Processed by: cddbd v1.5.2PL0 Copyright (c) Steve Scherf et al.
# Submitted via: ExactAudioCopyFreeDBPlugin 1.0
#
DISCID=870cb70a
DTITLE=Thanh Tuyen - Ngay Xua Anh Noi
DYEAR=1992
DGENRE=Country
TTITLE0=Sao Chua Thay Hoi Am
TTITLE1=Biet Kinh Ky
TTITLE2=Chuyen Do Vi Tuyen
TTITLE3=Chieu Thuong Nho
TTITLE4=Nho Nhau Hoai
TTITLE5=Noi Buon Gac Tro
TTITLE6=Chuyen Mot Chiec Cau Da Gay
TTITLE7=Ngay Xua Anh Noi
TTITLE8=Vong Tay Nao Cho Em
TTITLE9=Neu Mot Ngay
EXTD=
EXTT0=
EXTT1=
EXTT2=
EXTT3=
EXTT4=
EXTT5=
EXTT6=
EXTT7=
EXTT8=
EXTT9=
PLAYORDER=
